<svg xmlns="http://www.w3.org/2000/svg" viewBox="0 0 127.56 85.04"><title>logo</title>
<path class="path_1" d="M42.19,85c-3.82-3-9-6.55-13.26-11.29-6.55-7.36-10-14.73-10.7-23a26.43,26.43,0,0,1,4.85-17c5-6.83,12.21-12.16,18.33-15.62C53.69,11.36,64.87,8.14,88.12,7.12a163.85,163.85,0,0,1,17.21.68c10.16,1.14,20.27,4,22.23,4.32-8.92-3.9-16.87-5.84-26.36-7.6-.67-.31-10.17-1.29-10.53-1.3-2.58-.17-8.08-.48-14.75-.31A115.39,115.39,0,0,0,58.55,4.56a96.21,96.21,0,0,0-31.65,12c-12.68,7.17-24,20-23.87,34C3,72,26.47,81.2,42.19,85Z"/>
<path class="path_2" d="M39.16,82.18c-3.82-3-9-6.55-13.25-11.29-6.56-7.36-10-14.73-10.71-23a26.49,26.49,0,0,1,4.85-17c5-6.82,12.21-12.15,18.33-15.62,12.29-6.71,23.46-9.93,46.71-11a167.08,167.08,0,0,1,17.21.68c10.17,1.15,20.28,4,22.23,4.32-8.92-3.9-16.87-5.83-26.35-7.6C97.5,1.35,88,.37,87.64.37,85.06.19,79.56-.12,72.9.05A115.39,115.39,0,0,0,55.52,1.7a96.44,96.44,0,0,0-31.65,12c-12.68,7.16-24,20-23.87,34C0,69.12,23.44,78.34,39.16,82.18Z"/>
</svg>
