<svg xmlns="http://www.w3.org/2000/svg" width="50" height="35" shape-rendering="geometricPrecision" text-rendering="geometricPrecision" image-rendering="optimizeQuality" viewBox="0 0 5000 3500"><path d="M1649.3 3226.2c-134.6-106.4-318.6-231-467.5-398.3-231.2-259.7-351.7-519.6-377.7-812-11.1-242.8 55.6-436.5 171.2-601.2 177.3-240.8 430.7-428.8 646.5-551.2 433.5-236.6 827.7-350.3 1648-386.2-11.6 4.4 295.1-11 607.2 24.1 358.5 40.3 715.1 142.5 784.1 152.4-314.8-137.8-595-205.9-929.7-268.3-23.8-10.9-359-45.4-371.6-45.6-91.1-6.2-285.2-17.1-520.2-11.2-188.7 4.8-403.7 20.4-612.9 58.2-395.7 73-798.6 229.9-1116.5 424-447.4 252.7-847.6 705-842.1 1197.7-1.7 757 826.8 1082 1381.4 1217.6z"/><path d="M1542.5 3125.4c-134.6-106.4-318.6-231-467.5-398.3-231.2-259.7-351.7-519.6-377.7-812-11.1-242.8 55.6-436.5 171.2-601.2 177.3-240.8 430.7-428.8 646.5-551.1 433.5-236.6 827.7-350.3 1648-386.3-11.6 4.4 295.1-11 607.2 24.1 358.5 40.3 715.1 142.5 784.1 152.4-314.8-137.8-595-205.9-929.7-268.3-23.8-10.9-359-45.5-371.6-45.6-91.1-6.2-285.2-17.1-520.2-11.2-188.7 4.8-403.7 20.4-612.9 58.2-395.7 73-798.6 229.9-1116.5 424-447.4 252.7-847.6 705-842.1 1197.7-1.7 757 826.8 1082 1381.4 1217.6z"/></svg>